<svg xmlns="http://www.w3.org/2000/svg" xmlns:xlink="http://www.w3.org/1999/xlink" width="500" zoomAndPan="magnify" viewBox="0 0 375 374.999991" height="500" preserveAspectRatio="xMidYMid meet" version="1.0"><defs><g/><clipPath id="60cede709e"><path d="M 62.464844 62.464844 L 312.535156 62.464844 L 312.535156 312.535156 L 62.464844 312.535156 Z M 62.464844 62.464844 " clip-rule="nonzero"/></clipPath><clipPath id="feaa65a682"><path d="M 187.5 62.464844 C 118.445312 62.464844 62.464844 118.445312 62.464844 187.5 C 62.464844 256.554688 118.445312 312.535156 187.5 312.535156 C 256.554688 312.535156 312.535156 256.554688 312.535156 187.5 C 312.535156 118.445312 256.554688 62.464844 187.5 62.464844 Z M 187.5 62.464844 " clip-rule="nonzero"/></clipPath><clipPath id="f6d96d5d6d"><path d="M 82.039062 82.039062 L 292.960938 82.039062 L 292.960938 292.960938 L 82.039062 292.960938 Z M 82.039062 82.039062 " clip-rule="nonzero"/></clipPath><clipPath id="3691bf7a64"><path d="M 187.5 82.039062 C 129.257812 82.039062 82.039062 129.257812 82.039062 187.5 C 82.039062 245.742188 129.257812 292.960938 187.5 292.960938 C 245.742188 292.960938 292.960938 245.742188 292.960938 187.5 C 292.960938 129.257812 245.742188 82.039062 187.5 82.039062 Z M 187.5 82.039062 " clip-rule="nonzero"/></clipPath><clipPath id="8f9cbab639"><path d="M 103.949219 103.949219 L 271.050781 103.949219 L 271.050781 271.050781 L 103.949219 271.050781 Z M 103.949219 103.949219 " clip-rule="nonzero"/></clipPath><clipPath id="eb70696434"><path d="M 187.5 103.949219 C 141.355469 103.949219 103.949219 141.355469 103.949219 187.5 C 103.949219 233.644531 141.355469 271.050781 187.5 271.050781 C 233.644531 271.050781 271.050781 233.644531 271.050781 187.5 C 271.050781 141.355469 233.644531 103.949219 187.5 103.949219 Z M 187.5 103.949219 " clip-rule="nonzero"/></clipPath><clipPath id="0fd337bfc6"><path d="M 121.730469 121.730469 L 253.269531 121.730469 L 253.269531 253.269531 L 121.730469 253.269531 Z M 121.730469 121.730469 " clip-rule="nonzero"/></clipPath><clipPath id="baffe1b842"><path d="M 187.5 121.730469 C 151.175781 121.730469 121.730469 151.175781 121.730469 187.5 C 121.730469 223.824219 151.175781 253.269531 187.5 253.269531 C 223.824219 253.269531 253.269531 223.824219 253.269531 187.5 C 253.269531 151.175781 223.824219 121.730469 187.5 121.730469 Z M 187.5 121.730469 " clip-rule="nonzero"/></clipPath><clipPath id="7385a44963"><path d="M 178.90625 174.410156 L 196.09375 174.410156 L 196.09375 191.601562 L 178.90625 191.601562 Z M 178.90625 174.410156 " clip-rule="nonzero"/></clipPath><clipPath id="65a6697637"><path d="M 187.5 174.410156 C 182.753906 174.410156 178.90625 178.257812 178.90625 183.007812 C 178.90625 187.753906 182.753906 191.601562 187.5 191.601562 C 192.246094 191.601562 196.09375 187.753906 196.09375 183.007812 C 196.09375 178.257812 192.246094 174.410156 187.5 174.410156 Z M 187.5 174.410156 " clip-rule="nonzero"/></clipPath><clipPath id="10f238147e"><path d="M 106 97 L 188 97 L 188 257 L 106 257 Z M 106 97 " clip-rule="nonzero"/></clipPath><clipPath id="5b2b62c95d"><path d="M 179.144531 97.382812 L 187.5 101.292969 L 114.765625 256.796875 L 106.410156 252.890625 Z M 179.144531 97.382812 " clip-rule="nonzero"/></clipPath><clipPath id="fbf18a67db"><path d="M 184 97 L 268 97 L 268 254 L 184 254 Z M 184 97 " clip-rule="nonzero"/></clipPath><clipPath id="996d7d9614"><path d="M 267.601562 249.890625 L 259.3125 253.941406 L 184.773438 101.425781 L 193.0625 97.375 Z M 267.601562 249.890625 " clip-rule="nonzero"/></clipPath><clipPath id="fa4c9870d3"><path d="M 215 228 L 240 228 L 240 270 L 215 270 Z M 215 228 " clip-rule="nonzero"/></clipPath><clipPath id="2062176735"><path d="M 239.515625 266.207031 L 232.304688 269.359375 L 215.683594 231.367188 L 222.890625 228.210938 Z M 239.515625 266.207031 " clip-rule="nonzero"/></clipPath><clipPath id="430b883c5a"><path d="M 129 228 L 159 228 L 159 276 L 129 276 Z M 129 228 " clip-rule="nonzero"/></clipPath><clipPath id="139e5d63b9"><path d="M 151.511719 228.222656 L 158.523438 231.789062 L 136.472656 275.167969 L 129.457031 271.605469 Z M 151.511719 228.222656 " clip-rule="nonzero"/></clipPath><clipPath id="3c7e20bf3e"><path d="M 182.886719 62.460938 L 192.109375 62.460938 L 192.109375 86.160156 L 182.886719 86.160156 Z M 182.886719 62.460938 " clip-rule="nonzero"/></clipPath><clipPath id="588747112b"><path d="M 184.457031 282.53125 L 194.085938 282.53125 L 194.085938 313.328125 L 184.457031 313.328125 Z M 184.457031 282.53125 " clip-rule="nonzero"/></clipPath><clipPath id="40f344928a"><path d="M 62.460938 175.953125 L 84.636719 175.953125 L 84.636719 185.964844 L 62.460938 185.964844 Z M 62.460938 175.953125 " clip-rule="nonzero"/></clipPath><clipPath id="9e158ac0d6"><path d="M 288.027344 174.410156 L 312.527344 174.410156 L 312.527344 183.003906 L 288.027344 183.003906 Z M 288.027344 174.410156 " clip-rule="nonzero"/></clipPath><clipPath id="602f5cd02c"><path d="M 276.828125 172.9375 L 288.035156 172.9375 L 288.035156 184.480469 L 276.828125 184.480469 Z M 276.828125 172.9375 " clip-rule="nonzero"/></clipPath><clipPath id="c701928ce3"><path d="M 86.207031 175.1875 L 97.414062 175.1875 L 97.414062 186.734375 L 86.207031 186.734375 Z M 86.207031 175.1875 " clip-rule="nonzero"/></clipPath><clipPath id="8aeb68fa40"><path d="M 183.675781 276.769531 L 194.882812 276.769531 L 194.882812 288.3125 L 183.675781 288.3125 Z M 183.675781 276.769531 " clip-rule="nonzero"/></clipPath></defs><g clip-path="url(#60cede709e)"><g clip-path="url(#feaa65a682)"><path fill="#363d46" d="M 62.464844 62.464844 L 312.535156 62.464844 L 312.535156 312.535156 L 62.464844 312.535156 Z M 62.464844 62.464844 " fill-opacity="1" fill-rule="nonzero"/></g></g><g clip-path="url(#f6d96d5d6d)"><g clip-path="url(#3691bf7a64)"><path fill="#ffffff" d="M 82.039062 82.039062 L 292.960938 82.039062 L 292.960938 292.960938 L 82.039062 292.960938 Z M 82.039062 82.039062 " fill-opacity="1" fill-rule="nonzero"/></g></g><g clip-path="url(#8f9cbab639)"><g clip-path="url(#eb70696434)"><path fill="#363d46" d="M 103.949219 103.949219 L 271.050781 103.949219 L 271.050781 271.050781 L 103.949219 271.050781 Z M 103.949219 103.949219 " fill-opacity="1" fill-rule="nonzero"/></g></g><g clip-path="url(#0fd337bfc6)"><g clip-path="url(#baffe1b842)"><path fill="#ffffff" d="M 121.730469 121.730469 L 253.269531 121.730469 L 253.269531 253.269531 L 121.730469 253.269531 Z M 121.730469 121.730469 " fill-opacity="1" fill-rule="nonzero"/></g></g><g fill="#363d46" fill-opacity="1"><g transform="translate(118.46572, 250.865229)"><g><path d="M 69.9375 -148.34375 L 141.28125 0 L 115.28125 0 L 102.59375 -29.015625 L 34.671875 -29.015625 L 21.96875 0 L -3.21875 0 L 67.71875 -148.34375 Z M 59.859375 -85.25 L 43.734375 -49.375 L 93.71875 -49.375 L 77.796875 -85.046875 L 69.125 -105.40625 L 68.734375 -105.40625 Z M 59.859375 -85.25 "/></g></g></g><g clip-path="url(#7385a44963)"><g clip-path="url(#65a6697637)"><path fill="#363d46" d="M 178.90625 174.410156 L 196.09375 174.410156 L 196.09375 191.601562 L 178.90625 191.601562 Z M 178.90625 174.410156 " fill-opacity="1" fill-rule="nonzero"/></g></g><g clip-path="url(#10f238147e)"><g clip-path="url(#5b2b62c95d)"><path fill="#ffffff" d="M 179.144531 97.382812 L 187.5 101.292969 L 114.761719 256.8125 L 106.40625 252.90625 Z M 179.144531 97.382812 " fill-opacity="1" fill-rule="nonzero"/></g></g><g clip-path="url(#fbf18a67db)"><g clip-path="url(#996d7d9614)"><path fill="#ffffff" d="M 267.601562 249.890625 L 259.3125 253.941406 L 184.777344 101.433594 L 193.066406 97.382812 Z M 267.601562 249.890625 " fill-opacity="1" fill-rule="nonzero"/></g></g><g clip-path="url(#fa4c9870d3)"><g clip-path="url(#2062176735)"><path fill="#ffffff" d="M 239.515625 266.207031 L 232.304688 269.359375 L 215.683594 231.371094 L 222.894531 228.21875 Z M 239.515625 266.207031 " fill-opacity="1" fill-rule="nonzero"/></g></g><g clip-path="url(#430b883c5a)"><g clip-path="url(#139e5d63b9)"><path fill="#ffffff" d="M 151.511719 228.222656 L 158.523438 231.789062 L 136.476562 275.164062 L 129.460938 271.597656 Z M 151.511719 228.222656 " fill-opacity="1" fill-rule="nonzero"/></g></g><g clip-path="url(#3c7e20bf3e)"><path fill="#ffffff" d="M 192.109375 86.160156 L 182.886719 86.160156 L 182.886719 62.449219 L 192.109375 62.449219 Z M 192.109375 86.160156 " fill-opacity="1" fill-rule="nonzero"/></g><g clip-path="url(#588747112b)"><path fill="#ffffff" d="M 194.085938 313.328125 L 184.457031 313.328125 L 184.457031 282.523438 L 194.085938 282.523438 Z M 194.085938 313.328125 " fill-opacity="1" fill-rule="nonzero"/></g><g clip-path="url(#40f344928a)"><path fill="#ffffff" d="M 84.636719 175.953125 L 84.636719 185.964844 L 62.464844 185.964844 L 62.464844 175.953125 Z M 84.636719 175.953125 " fill-opacity="1" fill-rule="nonzero"/></g><g clip-path="url(#9e158ac0d6)"><path fill="#ffffff" d="M 312.527344 174.410156 L 312.527344 183.003906 L 288.019531 183.003906 L 288.019531 174.410156 Z M 312.527344 174.410156 " fill-opacity="1" fill-rule="nonzero"/></g><g clip-path="url(#602f5cd02c)"><path fill="#363d46" d="M 276.828125 172.9375 L 288.035156 172.9375 L 288.035156 184.492188 L 276.828125 184.492188 Z M 276.828125 172.9375 " fill-opacity="1" fill-rule="nonzero"/></g><g clip-path="url(#c701928ce3)"><path fill="#363d46" d="M 86.207031 175.1875 L 97.414062 175.1875 L 97.414062 186.746094 L 86.207031 186.746094 Z M 86.207031 175.1875 " fill-opacity="1" fill-rule="nonzero"/></g><g clip-path="url(#8aeb68fa40)"><path fill="#363d46" d="M 183.675781 276.769531 L 194.882812 276.769531 L 194.882812 288.324219 L 183.675781 288.324219 Z M 183.675781 276.769531 " fill-opacity="1" fill-rule="nonzero"/></g></svg>