<svg xmlns="http://www.w3.org/2000/svg" xmlns:xlink="http://www.w3.org/1999/xlink" width="500" zoomAndPan="magnify" viewBox="0 0 375 374.999991" height="500" preserveAspectRatio="xMidYMid meet" version="1.0"><defs><clipPath id="ccef353db6"><path d="M 47.046875 46.1875 L 324.296875 46.1875 L 324.296875 323.4375 L 47.046875 323.4375 Z M 47.046875 46.1875 " clip-rule="nonzero"/></clipPath><clipPath id="54e50ae022"><path d="M 185.671875 46.1875 C 109.113281 46.1875 47.046875 108.253906 47.046875 184.8125 C 47.046875 261.371094 109.113281 323.4375 185.671875 323.4375 C 262.230469 323.4375 324.296875 261.371094 324.296875 184.8125 C 324.296875 108.253906 262.230469 46.1875 185.671875 46.1875 Z M 185.671875 46.1875 " clip-rule="nonzero"/></clipPath><clipPath id="8e4a73d277"><path d="M 67.523438 66.664062 L 303.820312 66.664062 L 303.820312 302.960938 L 67.523438 302.960938 Z M 67.523438 66.664062 " clip-rule="nonzero"/></clipPath><clipPath id="d568869bc1"><path d="M 185.671875 66.664062 C 120.421875 66.664062 67.523438 119.5625 67.523438 184.8125 C 67.523438 250.0625 120.421875 302.960938 185.671875 302.960938 C 250.921875 302.960938 303.820312 250.0625 303.820312 184.8125 C 303.820312 119.5625 250.921875 66.664062 185.671875 66.664062 Z M 185.671875 66.664062 " clip-rule="nonzero"/></clipPath><clipPath id="91af2f0a98"><path d="M 282.171875 149.816406 L 352.160156 149.816406 L 352.160156 219.808594 L 282.171875 219.808594 Z M 282.171875 149.816406 " clip-rule="nonzero"/></clipPath><clipPath id="9c14a1bf9b"><path d="M 317.164062 149.816406 C 297.839844 149.816406 282.171875 165.484375 282.171875 184.8125 C 282.171875 204.140625 297.839844 219.808594 317.164062 219.808594 C 336.492188 219.808594 352.160156 204.140625 352.160156 184.8125 C 352.160156 165.484375 336.492188 149.816406 317.164062 149.816406 Z M 317.164062 149.816406 " clip-rule="nonzero"/></clipPath><clipPath id="5fe597c533"><path d="M 293.542969 161.191406 L 340.789062 161.191406 L 340.789062 208.433594 L 293.542969 208.433594 Z M 293.542969 161.191406 " clip-rule="nonzero"/></clipPath><clipPath id="068b0b5a96"><path d="M 317.164062 161.191406 C 304.121094 161.191406 293.542969 171.765625 293.542969 184.8125 C 293.542969 197.859375 304.121094 208.433594 317.164062 208.433594 C 330.210938 208.433594 340.789062 197.859375 340.789062 184.8125 C 340.789062 171.765625 330.210938 161.191406 317.164062 161.191406 Z M 317.164062 161.191406 " clip-rule="nonzero"/></clipPath><clipPath id="b0f5eafb7e"><path d="M 309.632812 177.28125 L 324.699219 177.28125 L 324.699219 192.34375 L 309.632812 192.34375 Z M 309.632812 177.28125 " clip-rule="nonzero"/></clipPath><clipPath id="7d4afcf664"><path d="M 317.164062 177.28125 C 313.003906 177.28125 309.632812 180.652344 309.632812 184.8125 C 309.632812 188.972656 313.003906 192.34375 317.164062 192.34375 C 321.324219 192.34375 324.699219 188.972656 324.699219 184.8125 C 324.699219 180.652344 321.324219 177.28125 317.164062 177.28125 Z M 317.164062 177.28125 " clip-rule="nonzero"/></clipPath><clipPath id="7c0150a986"><path d="M 150.675781 288.441406 L 220.664062 288.441406 L 220.664062 358.429688 L 150.675781 358.429688 Z M 150.675781 288.441406 " clip-rule="nonzero"/></clipPath><clipPath id="e5f31fddfd"><path d="M 185.671875 288.441406 C 166.34375 288.441406 150.675781 304.109375 150.675781 323.4375 C 150.675781 342.765625 166.34375 358.429688 185.671875 358.429688 C 205 358.429688 220.664062 342.765625 220.664062 323.4375 C 220.664062 304.109375 205 288.441406 185.671875 288.441406 Z M 185.671875 288.441406 " clip-rule="nonzero"/></clipPath><clipPath id="4a9321df0f"><path d="M 162.050781 299.816406 L 209.292969 299.816406 L 209.292969 347.058594 L 162.050781 347.058594 Z M 162.050781 299.816406 " clip-rule="nonzero"/></clipPath><clipPath id="308be62b51"><path d="M 185.671875 299.816406 C 172.625 299.816406 162.050781 310.390625 162.050781 323.4375 C 162.050781 336.484375 172.625 347.058594 185.671875 347.058594 C 198.71875 347.058594 209.292969 336.484375 209.292969 323.4375 C 209.292969 310.390625 198.71875 299.816406 185.671875 299.816406 Z M 185.671875 299.816406 " clip-rule="nonzero"/></clipPath><clipPath id="c817300eaf"><path d="M 178.140625 315.902344 L 193.203125 315.902344 L 193.203125 330.96875 L 178.140625 330.96875 Z M 178.140625 315.902344 " clip-rule="nonzero"/></clipPath><clipPath id="cca7bf3d59"><path d="M 185.671875 315.902344 C 181.511719 315.902344 178.140625 319.277344 178.140625 323.4375 C 178.140625 327.597656 181.511719 330.96875 185.671875 330.96875 C 189.832031 330.96875 193.203125 327.597656 193.203125 323.4375 C 193.203125 319.277344 189.832031 315.902344 185.671875 315.902344 Z M 185.671875 315.902344 " clip-rule="nonzero"/></clipPath><clipPath id="dacddb2298"><path d="M 22.839844 149.816406 L 92.828125 149.816406 L 92.828125 219.808594 L 22.839844 219.808594 Z M 22.839844 149.816406 " clip-rule="nonzero"/></clipPath><clipPath id="6f7b577c14"><path d="M 57.835938 149.816406 C 38.507812 149.816406 22.839844 165.484375 22.839844 184.8125 C 22.839844 204.140625 38.507812 219.808594 57.835938 219.808594 C 77.160156 219.808594 92.828125 204.140625 92.828125 184.8125 C 92.828125 165.484375 77.160156 149.816406 57.835938 149.816406 Z M 57.835938 149.816406 " clip-rule="nonzero"/></clipPath><clipPath id="d637821caf"><path d="M 34.210938 161.191406 L 81.457031 161.191406 L 81.457031 208.433594 L 34.210938 208.433594 Z M 34.210938 161.191406 " clip-rule="nonzero"/></clipPath><clipPath id="59372f1525"><path d="M 57.835938 161.191406 C 44.789062 161.191406 34.210938 171.765625 34.210938 184.8125 C 34.210938 197.859375 44.789062 208.433594 57.835938 208.433594 C 70.878906 208.433594 81.457031 197.859375 81.457031 184.8125 C 81.457031 171.765625 70.878906 161.191406 57.835938 161.191406 Z M 57.835938 161.191406 " clip-rule="nonzero"/></clipPath><clipPath id="35939df2b1"><path d="M 50.300781 177.28125 L 65.367188 177.28125 L 65.367188 192.34375 L 50.300781 192.34375 Z M 50.300781 177.28125 " clip-rule="nonzero"/></clipPath><clipPath id="28b1ec8ba4"><path d="M 57.835938 177.28125 C 53.675781 177.28125 50.300781 180.652344 50.300781 184.8125 C 50.300781 188.972656 53.675781 192.34375 57.835938 192.34375 C 61.996094 192.34375 65.367188 188.972656 65.367188 184.8125 C 65.367188 180.652344 61.996094 177.28125 57.835938 177.28125 Z M 57.835938 177.28125 " clip-rule="nonzero"/></clipPath><clipPath id="035bce70e5"><path d="M 150.675781 16.570312 L 220.664062 16.570312 L 220.664062 86.558594 L 150.675781 86.558594 Z M 150.675781 16.570312 " clip-rule="nonzero"/></clipPath><clipPath id="bcaf27d880"><path d="M 185.671875 16.570312 C 166.34375 16.570312 150.675781 32.234375 150.675781 51.5625 C 150.675781 70.890625 166.34375 86.558594 185.671875 86.558594 C 205 86.558594 220.664062 70.890625 220.664062 51.5625 C 220.664062 32.234375 205 16.570312 185.671875 16.570312 Z M 185.671875 16.570312 " clip-rule="nonzero"/></clipPath><clipPath id="0d9749de3c"><path d="M 162.050781 27.941406 L 209.292969 27.941406 L 209.292969 75.183594 L 162.050781 75.183594 Z M 162.050781 27.941406 " clip-rule="nonzero"/></clipPath><clipPath id="4838d5a49e"><path d="M 185.671875 27.941406 C 172.625 27.941406 162.050781 38.515625 162.050781 51.5625 C 162.050781 64.609375 172.625 75.183594 185.671875 75.183594 C 198.71875 75.183594 209.292969 64.609375 209.292969 51.5625 C 209.292969 38.515625 198.71875 27.941406 185.671875 27.941406 Z M 185.671875 27.941406 " clip-rule="nonzero"/></clipPath><clipPath id="cc7fad030b"><path d="M 178.140625 44.03125 L 193.203125 44.03125 L 193.203125 59.097656 L 178.140625 59.097656 Z M 178.140625 44.03125 " clip-rule="nonzero"/></clipPath><clipPath id="e6604bf03f"><path d="M 185.671875 44.03125 C 181.511719 44.03125 178.140625 47.402344 178.140625 51.5625 C 178.140625 55.722656 181.511719 59.097656 185.671875 59.097656 C 189.832031 59.097656 193.203125 55.722656 193.203125 51.5625 C 193.203125 47.402344 189.832031 44.03125 185.671875 44.03125 Z M 185.671875 44.03125 " clip-rule="nonzero"/></clipPath><clipPath id="bb4e1c0313"><path d="M 166.65625 86.191406 L 178.644531 86.191406 L 178.644531 149.835938 L 166.65625 149.835938 Z M 166.65625 86.191406 " clip-rule="nonzero"/></clipPath><clipPath id="1df4aaeca8"><path d="M 172.652344 86.191406 C 175.960938 86.191406 178.644531 88.875 178.644531 92.1875 L 178.644531 143.824219 C 178.644531 147.132812 175.960938 149.816406 172.652344 149.816406 C 169.339844 149.816406 166.65625 147.132812 166.65625 143.824219 L 166.65625 92.1875 C 166.65625 88.875 169.339844 86.191406 172.652344 86.191406 Z M 172.652344 86.191406 " clip-rule="nonzero"/></clipPath><clipPath id="671a5405f1"><path d="M 193.203125 86.558594 L 205.191406 86.558594 L 205.191406 150.199219 L 193.203125 150.199219 Z M 193.203125 86.558594 " clip-rule="nonzero"/></clipPath><clipPath id="9b4aa482e9"><path d="M 199.199219 86.558594 C 202.507812 86.558594 205.191406 89.242188 205.191406 92.550781 L 205.191406 144.1875 C 205.191406 147.5 202.507812 150.183594 199.199219 150.183594 C 195.886719 150.183594 193.203125 147.5 193.203125 144.1875 L 193.203125 92.550781 C 193.203125 89.242188 195.886719 86.558594 199.199219 86.558594 Z M 199.199219 86.558594 " clip-rule="nonzero"/></clipPath><clipPath id="8e2d4a240b"><path d="M 166.65625 219.808594 L 178.644531 219.808594 L 178.644531 283.449219 L 166.65625 283.449219 Z M 166.65625 219.808594 " clip-rule="nonzero"/></clipPath><clipPath id="c19fbe4b93"><path d="M 172.652344 219.808594 C 175.960938 219.808594 178.644531 222.492188 178.644531 225.800781 L 178.644531 277.4375 C 178.644531 280.75 175.960938 283.433594 172.652344 283.433594 C 169.339844 283.433594 166.65625 280.75 166.65625 277.4375 L 166.65625 225.800781 C 166.65625 222.492188 169.339844 219.808594 172.652344 219.808594 Z M 172.652344 219.808594 " clip-rule="nonzero"/></clipPath><clipPath id="6b9c70f74b"><path d="M 193.203125 219.808594 L 205.191406 219.808594 L 205.191406 283.449219 L 193.203125 283.449219 Z M 193.203125 219.808594 " clip-rule="nonzero"/></clipPath><clipPath id="b01907e50b"><path d="M 199.199219 219.808594 C 202.507812 219.808594 205.191406 222.492188 205.191406 225.800781 L 205.191406 277.4375 C 205.191406 280.75 202.507812 283.433594 199.199219 283.433594 C 195.886719 283.433594 193.203125 280.75 193.203125 277.4375 L 193.203125 225.800781 C 193.203125 222.492188 195.886719 219.808594 199.199219 219.808594 Z M 199.199219 219.808594 " clip-rule="nonzero"/></clipPath><clipPath id="c023e9d060"><path d="M 92.800781 165.292969 L 156.441406 165.292969 L 156.441406 177.28125 L 92.800781 177.28125 Z M 92.800781 165.292969 " clip-rule="nonzero"/></clipPath><clipPath id="e5329568d8"><path d="M 156.441406 171.285156 C 156.441406 174.597656 153.757812 177.28125 150.449219 177.28125 L 98.808594 177.28125 C 95.5 177.28125 92.816406 174.597656 92.816406 171.285156 C 92.816406 167.976562 95.5 165.292969 98.808594 165.292969 L 150.449219 165.292969 C 153.757812 165.292969 156.441406 167.976562 156.441406 171.285156 Z M 156.441406 171.285156 " clip-rule="nonzero"/></clipPath><clipPath id="cd9e9ee54c"><path d="M 92.800781 190.808594 L 156.441406 190.808594 L 156.441406 202.796875 L 92.800781 202.796875 Z M 92.800781 190.808594 " clip-rule="nonzero"/></clipPath><clipPath id="a5b2a7fe86"><path d="M 156.441406 196.800781 C 156.441406 200.113281 153.757812 202.796875 150.449219 202.796875 L 98.808594 202.796875 C 95.5 202.796875 92.816406 200.113281 92.816406 196.800781 C 92.816406 193.492188 95.5 190.808594 98.808594 190.808594 L 150.449219 190.808594 C 153.757812 190.808594 156.441406 193.492188 156.441406 196.800781 Z M 156.441406 196.800781 " clip-rule="nonzero"/></clipPath><clipPath id="b492d83bfa"><path d="M 218.515625 165.292969 L 282.160156 165.292969 L 282.160156 177.28125 L 218.515625 177.28125 Z M 218.515625 165.292969 " clip-rule="nonzero"/></clipPath><clipPath id="3164bcb8f2"><path d="M 282.160156 171.285156 C 282.160156 174.597656 279.476562 177.28125 276.164062 177.28125 L 224.527344 177.28125 C 221.214844 177.28125 218.53125 174.597656 218.53125 171.285156 C 218.53125 167.976562 221.214844 165.292969 224.527344 165.292969 L 276.164062 165.292969 C 279.476562 165.292969 282.160156 167.976562 282.160156 171.285156 Z M 282.160156 171.285156 " clip-rule="nonzero"/></clipPath><clipPath id="d55c7cfeee"><path d="M 218.515625 190.808594 L 282.160156 190.808594 L 282.160156 202.796875 L 218.515625 202.796875 Z M 218.515625 190.808594 " clip-rule="nonzero"/></clipPath><clipPath id="f1a6f34174"><path d="M 282.160156 196.800781 C 282.160156 200.113281 279.476562 202.796875 276.164062 202.796875 L 224.527344 202.796875 C 221.214844 202.796875 218.53125 200.113281 218.53125 196.800781 C 218.53125 193.492188 221.214844 190.808594 224.527344 190.808594 L 276.164062 190.808594 C 279.476562 190.808594 282.160156 193.492188 282.160156 196.800781 Z M 282.160156 196.800781 " clip-rule="nonzero"/></clipPath><clipPath id="90ddb70326"><path d="M 117.199219 118.003906 L 132.082031 118.003906 L 132.082031 132.886719 L 117.199219 132.886719 Z M 117.199219 118.003906 " clip-rule="nonzero"/></clipPath><clipPath id="f9535afb5c"><path d="M 124.640625 118.003906 C 120.53125 118.003906 117.199219 121.335938 117.199219 125.445312 C 117.199219 129.554688 120.53125 132.886719 124.640625 132.886719 C 128.75 132.886719 132.082031 129.554688 132.082031 125.445312 C 132.082031 121.335938 128.75 118.003906 124.640625 118.003906 Z M 124.640625 118.003906 " clip-rule="nonzero"/></clipPath><clipPath id="a5c5883483"><path d="M 235.476562 118.371094 L 250.359375 118.371094 L 250.359375 133.253906 L 235.476562 133.253906 Z M 235.476562 118.371094 " clip-rule="nonzero"/></clipPath><clipPath id="ff925607d3"><path d="M 242.917969 118.371094 C 238.808594 118.371094 235.476562 121.703125 235.476562 125.8125 C 235.476562 129.921875 238.808594 133.253906 242.917969 133.253906 C 247.027344 133.253906 250.359375 129.921875 250.359375 125.8125 C 250.359375 121.703125 247.027344 118.371094 242.917969 118.371094 Z M 242.917969 118.371094 " clip-rule="nonzero"/></clipPath><clipPath id="b49878dd90"><path d="M 117.199219 234.863281 L 132.082031 234.863281 L 132.082031 249.746094 L 117.199219 249.746094 Z M 117.199219 234.863281 " clip-rule="nonzero"/></clipPath><clipPath id="4acc663e89"><path d="M 124.640625 234.863281 C 120.53125 234.863281 117.199219 238.195312 117.199219 242.304688 C 117.199219 246.414062 120.53125 249.746094 124.640625 249.746094 C 128.75 249.746094 132.082031 246.414062 132.082031 242.304688 C 132.082031 238.195312 128.75 234.863281 124.640625 234.863281 Z M 124.640625 234.863281 " clip-rule="nonzero"/></clipPath><clipPath id="752ee9479d"><path d="M 239.550781 234.863281 L 254.433594 234.863281 L 254.433594 249.746094 L 239.550781 249.746094 Z M 239.550781 234.863281 " clip-rule="nonzero"/></clipPath><clipPath id="5cd8c04119"><path d="M 246.992188 234.863281 C 242.882812 234.863281 239.550781 238.195312 239.550781 242.304688 C 239.550781 246.414062 242.882812 249.746094 246.992188 249.746094 C 251.101562 249.746094 254.433594 246.414062 254.433594 242.304688 C 254.433594 238.195312 251.101562 234.863281 246.992188 234.863281 Z M 246.992188 234.863281 " clip-rule="nonzero"/></clipPath></defs><rect x="-37.5" width="450" fill="#ffffff" y="-37.499999" height="449.999989" fill-opacity="1"/><rect x="-37.5" width="450" fill="#545454" y="-37.499999" height="449.999989" fill-opacity="1"/><g clip-path="url(#ccef353db6)"><g clip-path="url(#54e50ae022)"><path fill="#c4cbd6" d="M 47.046875 46.1875 L 324.296875 46.1875 L 324.296875 323.4375 L 47.046875 323.4375 Z M 47.046875 46.1875 " fill-opacity="1" fill-rule="nonzero"/></g></g><g clip-path="url(#8e4a73d277)"><g clip-path="url(#d568869bc1)"><path fill="#545454" d="M 67.523438 66.664062 L 303.820312 66.664062 L 303.820312 302.960938 L 67.523438 302.960938 Z M 67.523438 66.664062 " fill-opacity="1" fill-rule="nonzero"/></g></g><g clip-path="url(#91af2f0a98)"><g clip-path="url(#9c14a1bf9b)"><path fill="#545454" d="M 282.171875 149.816406 L 352.160156 149.816406 L 352.160156 219.808594 L 282.171875 219.808594 Z M 282.171875 149.816406 " fill-opacity="1" fill-rule="nonzero"/></g></g><g clip-path="url(#5fe597c533)"><g clip-path="url(#068b0b5a96)"><path fill="#71a8b1" d="M 293.542969 161.191406 L 340.789062 161.191406 L 340.789062 208.433594 L 293.542969 208.433594 Z M 293.542969 161.191406 " fill-opacity="1" fill-rule="nonzero"/></g></g><g clip-path="url(#b0f5eafb7e)"><g clip-path="url(#7d4afcf664)"><path fill="#545454" d="M 309.632812 177.28125 L 324.699219 177.28125 L 324.699219 192.34375 L 309.632812 192.34375 Z M 309.632812 177.28125 " fill-opacity="1" fill-rule="nonzero"/></g></g><g clip-path="url(#7c0150a986)"><g clip-path="url(#e5f31fddfd)"><path fill="#545454" d="M 150.675781 288.441406 L 220.667969 288.441406 L 220.667969 358.429688 L 150.675781 358.429688 Z M 150.675781 288.441406 " fill-opacity="1" fill-rule="nonzero"/></g></g><g clip-path="url(#4a9321df0f)"><g clip-path="url(#308be62b51)"><path fill="#71a8b1" d="M 162.050781 299.816406 L 209.292969 299.816406 L 209.292969 347.058594 L 162.050781 347.058594 Z M 162.050781 299.816406 " fill-opacity="1" fill-rule="nonzero"/></g></g><g clip-path="url(#c817300eaf)"><g clip-path="url(#cca7bf3d59)"><path fill="#545454" d="M 178.140625 315.902344 L 193.203125 315.902344 L 193.203125 330.96875 L 178.140625 330.96875 Z M 178.140625 315.902344 " fill-opacity="1" fill-rule="nonzero"/></g></g><g clip-path="url(#dacddb2298)"><g clip-path="url(#6f7b577c14)"><path fill="#545454" d="M 22.839844 149.816406 L 92.828125 149.816406 L 92.828125 219.808594 L 22.839844 219.808594 Z M 22.839844 149.816406 " fill-opacity="1" fill-rule="nonzero"/></g></g><g clip-path="url(#d637821caf)"><g clip-path="url(#59372f1525)"><path fill="#71a8b1" d="M 34.210938 161.191406 L 81.457031 161.191406 L 81.457031 208.433594 L 34.210938 208.433594 Z M 34.210938 161.191406 " fill-opacity="1" fill-rule="nonzero"/></g></g><g clip-path="url(#35939df2b1)"><g clip-path="url(#28b1ec8ba4)"><path fill="#545454" d="M 50.300781 177.28125 L 65.367188 177.28125 L 65.367188 192.34375 L 50.300781 192.34375 Z M 50.300781 177.28125 " fill-opacity="1" fill-rule="nonzero"/></g></g><g clip-path="url(#035bce70e5)"><g clip-path="url(#bcaf27d880)"><path fill="#545454" d="M 150.675781 16.570312 L 220.667969 16.570312 L 220.667969 86.558594 L 150.675781 86.558594 Z M 150.675781 16.570312 " fill-opacity="1" fill-rule="nonzero"/></g></g><g clip-path="url(#0d9749de3c)"><g clip-path="url(#4838d5a49e)"><path fill="#71a8b1" d="M 162.050781 27.941406 L 209.292969 27.941406 L 209.292969 75.183594 L 162.050781 75.183594 Z M 162.050781 27.941406 " fill-opacity="1" fill-rule="nonzero"/></g></g><g clip-path="url(#cc7fad030b)"><g clip-path="url(#e6604bf03f)"><path fill="#545454" d="M 178.140625 44.03125 L 193.203125 44.03125 L 193.203125 59.097656 L 178.140625 59.097656 Z M 178.140625 44.03125 " fill-opacity="1" fill-rule="nonzero"/></g></g><g clip-path="url(#bb4e1c0313)"><g clip-path="url(#1df4aaeca8)"><path fill="#71a8b1" d="M 166.65625 86.191406 L 178.644531 86.191406 L 178.644531 149.835938 L 166.65625 149.835938 Z M 166.65625 86.191406 " fill-opacity="1" fill-rule="nonzero"/></g></g><g clip-path="url(#671a5405f1)"><g clip-path="url(#9b4aa482e9)"><path fill="#71a8b1" d="M 193.203125 86.558594 L 205.191406 86.558594 L 205.191406 150.199219 L 193.203125 150.199219 Z M 193.203125 86.558594 " fill-opacity="1" fill-rule="nonzero"/></g></g><g clip-path="url(#8e2d4a240b)"><g clip-path="url(#c19fbe4b93)"><path fill="#71a8b1" d="M 166.65625 219.808594 L 178.644531 219.808594 L 178.644531 283.449219 L 166.65625 283.449219 Z M 166.65625 219.808594 " fill-opacity="1" fill-rule="nonzero"/></g></g><g clip-path="url(#6b9c70f74b)"><g clip-path="url(#b01907e50b)"><path fill="#71a8b1" d="M 193.203125 219.808594 L 205.191406 219.808594 L 205.191406 283.449219 L 193.203125 283.449219 Z M 193.203125 219.808594 " fill-opacity="1" fill-rule="nonzero"/></g></g><g clip-path="url(#c023e9d060)"><g clip-path="url(#e5329568d8)"><path fill="#71a8b1" d="M 156.441406 165.292969 L 156.441406 177.28125 L 92.800781 177.28125 L 92.800781 165.292969 Z M 156.441406 165.292969 " fill-opacity="1" fill-rule="nonzero"/></g></g><g clip-path="url(#cd9e9ee54c)"><g clip-path="url(#a5b2a7fe86)"><path fill="#71a8b1" d="M 156.441406 190.808594 L 156.441406 202.796875 L 92.800781 202.796875 L 92.800781 190.808594 Z M 156.441406 190.808594 " fill-opacity="1" fill-rule="nonzero"/></g></g><g clip-path="url(#b492d83bfa)"><g clip-path="url(#3164bcb8f2)"><path fill="#71a8b1" d="M 282.160156 165.292969 L 282.160156 177.28125 L 218.515625 177.28125 L 218.515625 165.292969 Z M 282.160156 165.292969 " fill-opacity="1" fill-rule="nonzero"/></g></g><g clip-path="url(#d55c7cfeee)"><g clip-path="url(#f1a6f34174)"><path fill="#71a8b1" d="M 282.160156 190.808594 L 282.160156 202.796875 L 218.515625 202.796875 L 218.515625 190.808594 Z M 282.160156 190.808594 " fill-opacity="1" fill-rule="nonzero"/></g></g><g clip-path="url(#90ddb70326)"><g clip-path="url(#f9535afb5c)"><path fill="#71a8b1" d="M 117.199219 118.003906 L 132.082031 118.003906 L 132.082031 132.886719 L 117.199219 132.886719 Z M 117.199219 118.003906 " fill-opacity="1" fill-rule="nonzero"/></g></g><g clip-path="url(#a5c5883483)"><g clip-path="url(#ff925607d3)"><path fill="#71a8b1" d="M 235.476562 118.371094 L 250.359375 118.371094 L 250.359375 133.253906 L 235.476562 133.253906 Z M 235.476562 118.371094 " fill-opacity="1" fill-rule="nonzero"/></g></g><g clip-path="url(#b49878dd90)"><g clip-path="url(#4acc663e89)"><path fill="#71a8b1" d="M 117.199219 234.863281 L 132.082031 234.863281 L 132.082031 249.746094 L 117.199219 249.746094 Z M 117.199219 234.863281 " fill-opacity="1" fill-rule="nonzero"/></g></g><g clip-path="url(#752ee9479d)"><g clip-path="url(#5cd8c04119)"><path fill="#71a8b1" d="M 239.550781 234.863281 L 254.433594 234.863281 L 254.433594 249.746094 L 239.550781 249.746094 Z M 239.550781 234.863281 " fill-opacity="1" fill-rule="nonzero"/></g></g></svg>