<svg xmlns="http://www.w3.org/2000/svg" xmlns:xlink="http://www.w3.org/1999/xlink" width="500" zoomAndPan="magnify" viewBox="0 0 375 374.999991" height="500" preserveAspectRatio="xMidYMid meet" version="1.0"><defs><clipPath id="adcbcf5424"><path d="M 51.328125 51.328125 L 323.671875 51.328125 L 323.671875 323.671875 L 51.328125 323.671875 Z M 51.328125 51.328125 " clip-rule="nonzero"/></clipPath><clipPath id="5394756c74"><path d="M 187.5 51.328125 C 112.292969 51.328125 51.328125 112.292969 51.328125 187.5 C 51.328125 262.707031 112.292969 323.671875 187.5 323.671875 C 262.707031 323.671875 323.671875 262.707031 323.671875 187.5 C 323.671875 112.292969 262.707031 51.328125 187.5 51.328125 Z M 187.5 51.328125 " clip-rule="nonzero"/></clipPath><clipPath id="c09f6c1d69"><path d="M 71.445312 71.445312 L 303.554688 71.445312 L 303.554688 303.554688 L 71.445312 303.554688 Z M 71.445312 71.445312 " clip-rule="nonzero"/></clipPath><clipPath id="7dd0309867"><path d="M 187.5 71.445312 C 123.402344 71.445312 71.445312 123.402344 71.445312 187.5 C 71.445312 251.597656 123.402344 303.554688 187.5 303.554688 C 251.597656 303.554688 303.554688 251.597656 303.554688 187.5 C 303.554688 123.402344 251.597656 71.445312 187.5 71.445312 Z M 187.5 71.445312 " clip-rule="nonzero"/></clipPath><clipPath id="df06097294"><path d="M 282.292969 153.125 L 351.042969 153.125 L 351.042969 221.875 L 282.292969 221.875 Z M 282.292969 153.125 " clip-rule="nonzero"/></clipPath><clipPath id="a874619c25"><path d="M 316.667969 153.125 C 297.683594 153.125 282.292969 168.515625 282.292969 187.5 C 282.292969 206.484375 297.683594 221.875 316.667969 221.875 C 335.652344 221.875 351.042969 206.484375 351.042969 187.5 C 351.042969 168.515625 335.652344 153.125 316.667969 153.125 Z M 316.667969 153.125 " clip-rule="nonzero"/></clipPath><clipPath id="46119d9ce2"><path d="M 293.460938 164.296875 L 339.871094 164.296875 L 339.871094 210.703125 L 293.460938 210.703125 Z M 293.460938 164.296875 " clip-rule="nonzero"/></clipPath><clipPath id="4c9b991749"><path d="M 316.667969 164.296875 C 303.851562 164.296875 293.460938 174.683594 293.460938 187.5 C 293.460938 200.316406 303.851562 210.703125 316.667969 210.703125 C 329.480469 210.703125 339.871094 200.316406 339.871094 187.5 C 339.871094 174.683594 329.480469 164.296875 316.667969 164.296875 Z M 316.667969 164.296875 " clip-rule="nonzero"/></clipPath><clipPath id="472f3efac2"><path d="M 309.265625 180.101562 L 324.066406 180.101562 L 324.066406 194.898438 L 309.265625 194.898438 Z M 309.265625 180.101562 " clip-rule="nonzero"/></clipPath><clipPath id="6dd815cfa7"><path d="M 316.667969 180.101562 C 312.578125 180.101562 309.265625 183.414062 309.265625 187.5 C 309.265625 191.585938 312.578125 194.898438 316.667969 194.898438 C 320.753906 194.898438 324.066406 191.585938 324.066406 187.5 C 324.066406 183.414062 320.753906 180.101562 316.667969 180.101562 Z M 316.667969 180.101562 " clip-rule="nonzero"/></clipPath><clipPath id="bb565e0689"><path d="M 153.125 289.296875 L 221.875 289.296875 L 221.875 358.046875 L 153.125 358.046875 Z M 153.125 289.296875 " clip-rule="nonzero"/></clipPath><clipPath id="0159bb603f"><path d="M 187.5 289.296875 C 168.515625 289.296875 153.125 304.6875 153.125 323.671875 C 153.125 342.65625 168.515625 358.046875 187.5 358.046875 C 206.484375 358.046875 221.875 342.65625 221.875 323.671875 C 221.875 304.6875 206.484375 289.296875 187.5 289.296875 Z M 187.5 289.296875 " clip-rule="nonzero"/></clipPath><clipPath id="ffc8554ddf"><path d="M 164.296875 300.46875 L 210.703125 300.46875 L 210.703125 346.875 L 164.296875 346.875 Z M 164.296875 300.46875 " clip-rule="nonzero"/></clipPath><clipPath id="47a2fc3980"><path d="M 187.5 300.46875 C 174.683594 300.46875 164.296875 310.855469 164.296875 323.671875 C 164.296875 336.484375 174.683594 346.875 187.5 346.875 C 200.316406 346.875 210.703125 336.484375 210.703125 323.671875 C 210.703125 310.855469 200.316406 300.46875 187.5 300.46875 Z M 187.5 300.46875 " clip-rule="nonzero"/></clipPath><clipPath id="68c3737ac7"><path d="M 180.101562 316.273438 L 194.898438 316.273438 L 194.898438 331.070312 L 180.101562 331.070312 Z M 180.101562 316.273438 " clip-rule="nonzero"/></clipPath><clipPath id="c1cc28308a"><path d="M 187.5 316.273438 C 183.414062 316.273438 180.101562 319.585938 180.101562 323.671875 C 180.101562 327.757812 183.414062 331.070312 187.5 331.070312 C 191.585938 331.070312 194.898438 327.757812 194.898438 323.671875 C 194.898438 319.585938 191.585938 316.273438 187.5 316.273438 Z M 187.5 316.273438 " clip-rule="nonzero"/></clipPath><clipPath id="9e8fdd270f"><path d="M 27.550781 153.125 L 96.300781 153.125 L 96.300781 221.875 L 27.550781 221.875 Z M 27.550781 153.125 " clip-rule="nonzero"/></clipPath><clipPath id="fd3494c710"><path d="M 61.925781 153.125 C 42.941406 153.125 27.550781 168.515625 27.550781 187.5 C 27.550781 206.484375 42.941406 221.875 61.925781 221.875 C 80.910156 221.875 96.300781 206.484375 96.300781 187.5 C 96.300781 168.515625 80.910156 153.125 61.925781 153.125 Z M 61.925781 153.125 " clip-rule="nonzero"/></clipPath><clipPath id="86a14eb067"><path d="M 38.722656 164.296875 L 85.128906 164.296875 L 85.128906 210.703125 L 38.722656 210.703125 Z M 38.722656 164.296875 " clip-rule="nonzero"/></clipPath><clipPath id="89efeca18b"><path d="M 61.925781 164.296875 C 49.109375 164.296875 38.722656 174.683594 38.722656 187.5 C 38.722656 200.316406 49.109375 210.703125 61.925781 210.703125 C 74.742188 210.703125 85.128906 200.316406 85.128906 187.5 C 85.128906 174.683594 74.742188 164.296875 61.925781 164.296875 Z M 61.925781 164.296875 " clip-rule="nonzero"/></clipPath><clipPath id="7ee397b22c"><path d="M 54.527344 180.101562 L 69.324219 180.101562 L 69.324219 194.898438 L 54.527344 194.898438 Z M 54.527344 180.101562 " clip-rule="nonzero"/></clipPath><clipPath id="086cb26ace"><path d="M 61.925781 180.101562 C 57.839844 180.101562 54.527344 183.414062 54.527344 187.5 C 54.527344 191.585938 57.839844 194.898438 61.925781 194.898438 C 66.011719 194.898438 69.324219 191.585938 69.324219 187.5 C 69.324219 183.414062 66.011719 180.101562 61.925781 180.101562 Z M 61.925781 180.101562 " clip-rule="nonzero"/></clipPath><clipPath id="0f861f9870"><path d="M 153.125 22.234375 L 221.875 22.234375 L 221.875 90.984375 L 153.125 90.984375 Z M 153.125 22.234375 " clip-rule="nonzero"/></clipPath><clipPath id="80dddecb95"><path d="M 187.5 22.234375 C 168.515625 22.234375 153.125 37.625 153.125 56.609375 C 153.125 75.59375 168.515625 90.984375 187.5 90.984375 C 206.484375 90.984375 221.875 75.59375 221.875 56.609375 C 221.875 37.625 206.484375 22.234375 187.5 22.234375 Z M 187.5 22.234375 " clip-rule="nonzero"/></clipPath><clipPath id="fa49c25e9b"><path d="M 164.296875 33.40625 L 210.703125 33.40625 L 210.703125 79.8125 L 164.296875 79.8125 Z M 164.296875 33.40625 " clip-rule="nonzero"/></clipPath><clipPath id="a1d5a06537"><path d="M 187.5 33.40625 C 174.683594 33.40625 164.296875 43.792969 164.296875 56.609375 C 164.296875 69.425781 174.683594 79.8125 187.5 79.8125 C 200.316406 79.8125 210.703125 69.425781 210.703125 56.609375 C 210.703125 43.792969 200.316406 33.40625 187.5 33.40625 Z M 187.5 33.40625 " clip-rule="nonzero"/></clipPath><clipPath id="e6a9768be1"><path d="M 180.101562 49.210938 L 194.898438 49.210938 L 194.898438 64.007812 L 180.101562 64.007812 Z M 180.101562 49.210938 " clip-rule="nonzero"/></clipPath><clipPath id="70c2e06228"><path d="M 187.5 49.210938 C 183.414062 49.210938 180.101562 52.523438 180.101562 56.609375 C 180.101562 60.695312 183.414062 64.007812 187.5 64.007812 C 191.585938 64.007812 194.898438 60.695312 194.898438 56.609375 C 194.898438 52.523438 191.585938 49.210938 187.5 49.210938 Z M 187.5 49.210938 " clip-rule="nonzero"/></clipPath><clipPath id="3ebc5840c2"><path d="M 168.820312 90.625 L 180.597656 90.625 L 180.597656 153.140625 L 168.820312 153.140625 Z M 168.820312 90.625 " clip-rule="nonzero"/></clipPath><clipPath id="ec836e3f1f"><path d="M 174.710938 90.625 C 177.960938 90.625 180.597656 93.261719 180.597656 96.511719 L 180.597656 147.238281 C 180.597656 150.488281 177.960938 153.125 174.710938 153.125 C 171.457031 153.125 168.820312 150.488281 168.820312 147.238281 L 168.820312 96.511719 C 168.820312 93.261719 171.457031 90.625 174.710938 90.625 Z M 174.710938 90.625 " clip-rule="nonzero"/></clipPath><clipPath id="64137ab455"><path d="M 194.898438 90.984375 L 206.675781 90.984375 L 206.675781 153.5 L 194.898438 153.5 Z M 194.898438 90.984375 " clip-rule="nonzero"/></clipPath><clipPath id="27e8c49b5a"><path d="M 200.789062 90.984375 C 204.039062 90.984375 206.675781 93.621094 206.675781 96.871094 L 206.675781 147.597656 C 206.675781 150.847656 204.039062 153.484375 200.789062 153.484375 C 197.535156 153.484375 194.898438 150.847656 194.898438 147.597656 L 194.898438 96.871094 C 194.898438 93.621094 197.535156 90.984375 200.789062 90.984375 Z M 200.789062 90.984375 " clip-rule="nonzero"/></clipPath><clipPath id="9037ced2be"><path d="M 168.820312 221.875 L 180.597656 221.875 L 180.597656 284.390625 L 168.820312 284.390625 Z M 168.820312 221.875 " clip-rule="nonzero"/></clipPath><clipPath id="0661525ce1"><path d="M 174.710938 221.875 C 177.960938 221.875 180.597656 224.511719 180.597656 227.761719 L 180.597656 278.488281 C 180.597656 281.738281 177.960938 284.375 174.710938 284.375 C 171.457031 284.375 168.820312 281.738281 168.820312 278.488281 L 168.820312 227.761719 C 168.820312 224.511719 171.457031 221.875 174.710938 221.875 Z M 174.710938 221.875 " clip-rule="nonzero"/></clipPath><clipPath id="1117f1f978"><path d="M 194.898438 221.875 L 206.675781 221.875 L 206.675781 284.390625 L 194.898438 284.390625 Z M 194.898438 221.875 " clip-rule="nonzero"/></clipPath><clipPath id="7012bf9f78"><path d="M 200.789062 221.875 C 204.039062 221.875 206.675781 224.511719 206.675781 227.761719 L 206.675781 278.488281 C 206.675781 281.738281 204.039062 284.375 200.789062 284.375 C 197.535156 284.375 194.898438 281.738281 194.898438 278.488281 L 194.898438 227.761719 C 194.898438 224.511719 197.535156 221.875 200.789062 221.875 Z M 200.789062 221.875 " clip-rule="nonzero"/></clipPath><clipPath id="f30ec7bb3e"><path d="M 96.277344 168.328125 L 158.792969 168.328125 L 158.792969 180.105469 L 96.277344 180.105469 Z M 96.277344 168.328125 " clip-rule="nonzero"/></clipPath><clipPath id="ab0dbb2a13"><path d="M 158.792969 174.214844 C 158.792969 177.46875 156.15625 180.105469 152.90625 180.105469 L 102.179688 180.105469 C 98.929688 180.105469 96.292969 177.46875 96.292969 174.214844 C 96.292969 170.964844 98.929688 168.328125 102.179688 168.328125 L 152.90625 168.328125 C 156.15625 168.328125 158.792969 170.964844 158.792969 174.214844 Z M 158.792969 174.214844 " clip-rule="nonzero"/></clipPath><clipPath id="06d289ee96"><path d="M 96.277344 193.390625 L 158.792969 193.390625 L 158.792969 205.167969 L 96.277344 205.167969 Z M 96.277344 193.390625 " clip-rule="nonzero"/></clipPath><clipPath id="8625d4c2d9"><path d="M 158.792969 199.28125 C 158.792969 202.53125 156.15625 205.167969 152.90625 205.167969 L 102.179688 205.167969 C 98.929688 205.167969 96.292969 202.53125 96.292969 199.28125 C 96.292969 196.027344 98.929688 193.390625 102.179688 193.390625 L 152.90625 193.390625 C 156.15625 193.390625 158.792969 196.027344 158.792969 199.28125 Z M 158.792969 199.28125 " clip-rule="nonzero"/></clipPath><clipPath id="ec868ef493"><path d="M 219.769531 168.328125 L 282.285156 168.328125 L 282.285156 180.105469 L 219.769531 180.105469 Z M 219.769531 168.328125 " clip-rule="nonzero"/></clipPath><clipPath id="c29cc6f264"><path d="M 282.285156 174.214844 C 282.285156 177.46875 279.648438 180.105469 276.394531 180.105469 L 225.671875 180.105469 C 222.421875 180.105469 219.785156 177.46875 219.785156 174.214844 C 219.785156 170.964844 222.421875 168.328125 225.671875 168.328125 L 276.394531 168.328125 C 279.648438 168.328125 282.285156 170.964844 282.285156 174.214844 Z M 282.285156 174.214844 " clip-rule="nonzero"/></clipPath><clipPath id="d2f608fea3"><path d="M 219.769531 193.390625 L 282.285156 193.390625 L 282.285156 205.167969 L 219.769531 205.167969 Z M 219.769531 193.390625 " clip-rule="nonzero"/></clipPath><clipPath id="ccbd885e3f"><path d="M 282.285156 199.28125 C 282.285156 202.53125 279.648438 205.167969 276.394531 205.167969 L 225.671875 205.167969 C 222.421875 205.167969 219.785156 202.53125 219.785156 199.28125 C 219.785156 196.027344 222.421875 193.390625 225.671875 193.390625 L 276.394531 193.390625 C 279.648438 193.390625 282.285156 196.027344 282.285156 199.28125 Z M 282.285156 199.28125 " clip-rule="nonzero"/></clipPath><clipPath id="4b220d84d9"><path d="M 120.242188 121.875 L 134.859375 121.875 L 134.859375 136.496094 L 120.242188 136.496094 Z M 120.242188 121.875 " clip-rule="nonzero"/></clipPath><clipPath id="fb4843f772"><path d="M 127.550781 121.875 C 123.511719 121.875 120.242188 125.148438 120.242188 129.183594 C 120.242188 133.222656 123.511719 136.496094 127.550781 136.496094 C 131.585938 136.496094 134.859375 133.222656 134.859375 129.183594 C 134.859375 125.148438 131.585938 121.875 127.550781 121.875 Z M 127.550781 121.875 " clip-rule="nonzero"/></clipPath><clipPath id="1042d3eecf"><path d="M 236.421875 122.234375 L 251.042969 122.234375 L 251.042969 136.851562 L 236.421875 136.851562 Z M 236.421875 122.234375 " clip-rule="nonzero"/></clipPath><clipPath id="f78bf09560"><path d="M 243.730469 122.234375 C 239.695312 122.234375 236.421875 125.507812 236.421875 129.542969 C 236.421875 133.582031 239.695312 136.851562 243.730469 136.851562 C 247.769531 136.851562 251.042969 133.582031 251.042969 129.542969 C 251.042969 125.507812 247.769531 122.234375 243.730469 122.234375 Z M 243.730469 122.234375 " clip-rule="nonzero"/></clipPath><clipPath id="b87e6dc991"><path d="M 120.242188 236.664062 L 134.859375 236.664062 L 134.859375 251.285156 L 120.242188 251.285156 Z M 120.242188 236.664062 " clip-rule="nonzero"/></clipPath><clipPath id="0ec53ba0eb"><path d="M 127.550781 236.664062 C 123.511719 236.664062 120.242188 239.9375 120.242188 243.972656 C 120.242188 248.011719 123.511719 251.285156 127.550781 251.285156 C 131.585938 251.285156 134.859375 248.011719 134.859375 243.972656 C 134.859375 239.9375 131.585938 236.664062 127.550781 236.664062 Z M 127.550781 236.664062 " clip-rule="nonzero"/></clipPath><clipPath id="0d04393a40"><path d="M 240.425781 236.664062 L 255.046875 236.664062 L 255.046875 251.285156 L 240.425781 251.285156 Z M 240.425781 236.664062 " clip-rule="nonzero"/></clipPath><clipPath id="c88aead78b"><path d="M 247.734375 236.664062 C 243.699219 236.664062 240.425781 239.9375 240.425781 243.972656 C 240.425781 248.011719 243.699219 251.285156 247.734375 251.285156 C 251.773438 251.285156 255.046875 248.011719 255.046875 243.972656 C 255.046875 239.9375 251.773438 236.664062 247.734375 236.664062 Z M 247.734375 236.664062 " clip-rule="nonzero"/></clipPath></defs><g clip-path="url(#adcbcf5424)"><g clip-path="url(#5394756c74)"><path fill="#c4cbd6" d="M 51.328125 51.328125 L 323.671875 51.328125 L 323.671875 323.671875 L 51.328125 323.671875 Z M 51.328125 51.328125 " fill-opacity="1" fill-rule="nonzero"/></g></g><g clip-path="url(#c09f6c1d69)"><g clip-path="url(#7dd0309867)"><path fill="#ffffff" d="M 71.445312 71.445312 L 303.554688 71.445312 L 303.554688 303.554688 L 71.445312 303.554688 Z M 71.445312 71.445312 " fill-opacity="1" fill-rule="nonzero"/></g></g><g clip-path="url(#df06097294)"><g clip-path="url(#a874619c25)"><path fill="#ffffff" d="M 282.292969 153.125 L 351.042969 153.125 L 351.042969 221.875 L 282.292969 221.875 Z M 282.292969 153.125 " fill-opacity="1" fill-rule="nonzero"/></g></g><g clip-path="url(#46119d9ce2)"><g clip-path="url(#4c9b991749)"><path fill="#71a8b1" d="M 293.460938 164.296875 L 339.871094 164.296875 L 339.871094 210.703125 L 293.460938 210.703125 Z M 293.460938 164.296875 " fill-opacity="1" fill-rule="nonzero"/></g></g><g clip-path="url(#472f3efac2)"><g clip-path="url(#6dd815cfa7)"><path fill="#ffffff" d="M 309.265625 180.101562 L 324.066406 180.101562 L 324.066406 194.898438 L 309.265625 194.898438 Z M 309.265625 180.101562 " fill-opacity="1" fill-rule="nonzero"/></g></g><g clip-path="url(#bb565e0689)"><g clip-path="url(#0159bb603f)"><path fill="#ffffff" d="M 153.125 289.296875 L 221.875 289.296875 L 221.875 358.046875 L 153.125 358.046875 Z M 153.125 289.296875 " fill-opacity="1" fill-rule="nonzero"/></g></g><g clip-path="url(#ffc8554ddf)"><g clip-path="url(#47a2fc3980)"><path fill="#71a8b1" d="M 164.296875 300.46875 L 210.703125 300.46875 L 210.703125 346.875 L 164.296875 346.875 Z M 164.296875 300.46875 " fill-opacity="1" fill-rule="nonzero"/></g></g><g clip-path="url(#68c3737ac7)"><g clip-path="url(#c1cc28308a)"><path fill="#ffffff" d="M 180.101562 316.273438 L 194.898438 316.273438 L 194.898438 331.070312 L 180.101562 331.070312 Z M 180.101562 316.273438 " fill-opacity="1" fill-rule="nonzero"/></g></g><g clip-path="url(#9e8fdd270f)"><g clip-path="url(#fd3494c710)"><path fill="#ffffff" d="M 27.550781 153.125 L 96.300781 153.125 L 96.300781 221.875 L 27.550781 221.875 Z M 27.550781 153.125 " fill-opacity="1" fill-rule="nonzero"/></g></g><g clip-path="url(#86a14eb067)"><g clip-path="url(#89efeca18b)"><path fill="#71a8b1" d="M 38.722656 164.296875 L 85.128906 164.296875 L 85.128906 210.703125 L 38.722656 210.703125 Z M 38.722656 164.296875 " fill-opacity="1" fill-rule="nonzero"/></g></g><g clip-path="url(#7ee397b22c)"><g clip-path="url(#086cb26ace)"><path fill="#ffffff" d="M 54.527344 180.101562 L 69.324219 180.101562 L 69.324219 194.898438 L 54.527344 194.898438 Z M 54.527344 180.101562 " fill-opacity="1" fill-rule="nonzero"/></g></g><g clip-path="url(#0f861f9870)"><g clip-path="url(#80dddecb95)"><path fill="#ffffff" d="M 153.125 22.234375 L 221.875 22.234375 L 221.875 90.984375 L 153.125 90.984375 Z M 153.125 22.234375 " fill-opacity="1" fill-rule="nonzero"/></g></g><g clip-path="url(#fa49c25e9b)"><g clip-path="url(#a1d5a06537)"><path fill="#71a8b1" d="M 164.296875 33.40625 L 210.703125 33.40625 L 210.703125 79.8125 L 164.296875 79.8125 Z M 164.296875 33.40625 " fill-opacity="1" fill-rule="nonzero"/></g></g><g clip-path="url(#e6a9768be1)"><g clip-path="url(#70c2e06228)"><path fill="#ffffff" d="M 180.101562 49.210938 L 194.898438 49.210938 L 194.898438 64.007812 L 180.101562 64.007812 Z M 180.101562 49.210938 " fill-opacity="1" fill-rule="nonzero"/></g></g><g clip-path="url(#3ebc5840c2)"><g clip-path="url(#ec836e3f1f)"><path fill="#71a8b1" d="M 168.820312 90.625 L 180.597656 90.625 L 180.597656 153.140625 L 168.820312 153.140625 Z M 168.820312 90.625 " fill-opacity="1" fill-rule="nonzero"/></g></g><g clip-path="url(#64137ab455)"><g clip-path="url(#27e8c49b5a)"><path fill="#71a8b1" d="M 194.898438 90.984375 L 206.675781 90.984375 L 206.675781 153.5 L 194.898438 153.5 Z M 194.898438 90.984375 " fill-opacity="1" fill-rule="nonzero"/></g></g><g clip-path="url(#9037ced2be)"><g clip-path="url(#0661525ce1)"><path fill="#71a8b1" d="M 168.820312 221.875 L 180.597656 221.875 L 180.597656 284.390625 L 168.820312 284.390625 Z M 168.820312 221.875 " fill-opacity="1" fill-rule="nonzero"/></g></g><g clip-path="url(#1117f1f978)"><g clip-path="url(#7012bf9f78)"><path fill="#71a8b1" d="M 194.898438 221.875 L 206.675781 221.875 L 206.675781 284.390625 L 194.898438 284.390625 Z M 194.898438 221.875 " fill-opacity="1" fill-rule="nonzero"/></g></g><g clip-path="url(#f30ec7bb3e)"><g clip-path="url(#ab0dbb2a13)"><path fill="#71a8b1" d="M 158.792969 168.328125 L 158.792969 180.105469 L 96.277344 180.105469 L 96.277344 168.328125 Z M 158.792969 168.328125 " fill-opacity="1" fill-rule="nonzero"/></g></g><g clip-path="url(#06d289ee96)"><g clip-path="url(#8625d4c2d9)"><path fill="#71a8b1" d="M 158.792969 193.390625 L 158.792969 205.167969 L 96.277344 205.167969 L 96.277344 193.390625 Z M 158.792969 193.390625 " fill-opacity="1" fill-rule="nonzero"/></g></g><g clip-path="url(#ec868ef493)"><g clip-path="url(#c29cc6f264)"><path fill="#71a8b1" d="M 282.285156 168.328125 L 282.285156 180.105469 L 219.769531 180.105469 L 219.769531 168.328125 Z M 282.285156 168.328125 " fill-opacity="1" fill-rule="nonzero"/></g></g><g clip-path="url(#d2f608fea3)"><g clip-path="url(#ccbd885e3f)"><path fill="#71a8b1" d="M 282.285156 193.390625 L 282.285156 205.167969 L 219.769531 205.167969 L 219.769531 193.390625 Z M 282.285156 193.390625 " fill-opacity="1" fill-rule="nonzero"/></g></g><g clip-path="url(#4b220d84d9)"><g clip-path="url(#fb4843f772)"><path fill="#71a8b1" d="M 120.242188 121.875 L 134.859375 121.875 L 134.859375 136.496094 L 120.242188 136.496094 Z M 120.242188 121.875 " fill-opacity="1" fill-rule="nonzero"/></g></g><g clip-path="url(#1042d3eecf)"><g clip-path="url(#f78bf09560)"><path fill="#71a8b1" d="M 236.421875 122.234375 L 251.042969 122.234375 L 251.042969 136.851562 L 236.421875 136.851562 Z M 236.421875 122.234375 " fill-opacity="1" fill-rule="nonzero"/></g></g><g clip-path="url(#b87e6dc991)"><g clip-path="url(#0ec53ba0eb)"><path fill="#71a8b1" d="M 120.242188 236.664062 L 134.859375 236.664062 L 134.859375 251.285156 L 120.242188 251.285156 Z M 120.242188 236.664062 " fill-opacity="1" fill-rule="nonzero"/></g></g><g clip-path="url(#0d04393a40)"><g clip-path="url(#c88aead78b)"><path fill="#71a8b1" d="M 240.425781 236.664062 L 255.046875 236.664062 L 255.046875 251.285156 L 240.425781 251.285156 Z M 240.425781 236.664062 " fill-opacity="1" fill-rule="nonzero"/></g></g></svg>